<?xml version="1.0" standalone="no"?>
<svg version="1.0" xmlns="http://www.w3.org/2000/svg"
    width="512.000000pt" height="512.000000pt" viewBox="0 0 512.000000 512.000000"
    preserveAspectRatio="xMidYMid meet">

  <g transform="translate(0.000000,512.000000) scale(0.100000,-0.100000)"
      fill="#000000" stroke="none">
    <path stroke="#000000" stroke-width="120" d="M2265 4029 c-94 -12 -175 -72 -210 -155 -17 -41 -454 -1977 -459
-2033 -4 -52 16 -123 49 -171 59 -85 57 -84 836 -260 392 -88 729 -160 749
-160 86 0 179 55 225 134 19 33 76 268 250 1044 124 550 225 1020 225 1044 0
86 -64 182 -151 226 -28 14 -292 78 -714 173 -788 177 -737 166 -800 158z
m751 -259 c470 -106 717 -166 733 -178 41 -30 63 -67 68 -113 3 -33 -50 -288
-216 -1024 -122 -539 -226 -993 -232 -1008 -17 -40 -68 -76 -120 -83 -35 -5
-184 25 -737 150 -381 86 -705 162 -720 170 -40 21 -69 56 -82 101 -11 37 4
108 214 1042 124 551 232 1013 241 1027 25 38 71 63 136 75 3 1 325 -71 715
-159z"/>
    <path stroke="#000000" stroke-width="30" d="M2805 3427 c-22 -12 -50 -37 -62 -56 -60 -89 -32 -205 62 -258 125
-71 278 46 251 191 -15 78 -94 146 -171 146 -23 0 -57 -10 -80 -23z m130 -102
c16 -15 25 -36 25 -55 0 -38 -39 -80 -75 -80 -36 0 -75 42 -75 80 0 38 39 80
75 80 14 0 37 -11 50 -25z"/>
    <path stroke="#000000" stroke-width="120" d="M1377 3390 c-249 -86 -382 -137 -409 -157 -23 -17 -55 -54 -72 -83
-24 -43 -30 -65 -30 -119 -1 -62 20 -128 328 -1014 363 -1042 345 -1000 448
-1051 94 -47 119 -42 535 101 202 69 370 128 372 129 8 7 -22 94 -33 94 -6 0
-177 -57 -380 -126 -366 -126 -369 -127 -415 -115 -91 24 -72 -20 -427 1002
-229 663 -323 947 -324 978 0 48 26 100 63 124 13 8 183 70 378 137 194 67
358 126 363 130 8 8 -9 78 -23 91 -3 4 -172 -51 -374 -121z"/>
  </g>
</svg>
