<?xml version="1.0" encoding="utf-8"?>
<svg xmlns="http://www.w3.org/2000/svg" viewBox="0 0 32 40">
	<g fill="#000000">

		<!-- Asterisk symbol 1 (right) -->
		<path d="M26.915,17.773a1,1,0,0,1-1-1v-.51172c-1.22788,1.628-3.041-.18831-1.41406-1.41406h-.51172a1,1,0,0,1,0-2H24.501c-1.628-1.22788.1883-3.041,1.41406-1.41406v-.51172a1,1,0,1,1,2,0v.51172c1.22787-1.628,3.041.1883,1.41406,1.41406h.51172a1,1,0,0,1,0,2H29.3291c1.628,1.22787-.18831,3.041-1.41406,1.41406V16.773A1,1,0,0,1,26.915,17.773Z"/>

		<!-- Asterisk symbol 2 (center) -->
		<path d="M16,17.773a1,1,0,0,1-1-1v-.51172c-1.22788,1.628-3.041-.18831-1.41406-1.41406h-.51172a1,1,0,0,1,0-2h.51172c-1.628-1.22788.18831-3.041,1.41406-1.41406v-.51172a1,1,0,0,1,2,0v.51172c1.22788-1.628,3.041.1883,1.41406,1.41406h.51172a1,1,0,0,1,0,2h-.51172c1.628,1.22787-.18831,3.041-1.41406,1.41406V16.773A1,1,0,0,1,16,17.773Z"/>

		<!-- Asterisk symbol 3 (left) -->
		<path d="M5.085,17.773a1,1,0,0,1-1-1v-.51172c-1.22787,1.628-3.041-.18831-1.41406-1.41406H2.15918a1,1,0,0,1,0-2H2.6709c-1.628-1.22788.18831-3.041,1.41406-1.41406v-.51172a1,1,0,0,1,2,0v.51172c1.22788-1.628,3.041.1883,1.41406,1.41406h.51172a1,1,0,0,1,0,2H7.499c1.628,1.22787-.1883,3.041-1.41406,1.41406V16.773A1,1,0,0,1,5.085,17.773Z"/>

		<!-- Solid line under asterisks -->
		<rect x="2" y="21.25" width="28" height="1.5"/>
	</g>
</svg>
